<svg width="56" height="56" viewBox="0 0 56 56" fill="none" xmlns="http://www.w3.org/2000/svg">
<path fill-rule="evenodd" clip-rule="evenodd" d="M34.6561 27.9996L54.6221 8.03355C56.4601 6.19564 56.4601 3.21582 54.6221 1.37819C52.7842 -0.459716 49.8047 -0.459716 47.9668 1.37819L28.0004 21.3445L8.03408 1.37792C6.19618 -0.459979 3.21662 -0.459979 1.37872 1.37792C-0.458922 3.21582 -0.458922 6.19564 1.37872 8.03328L21.3451 27.9994L1.37872 47.9657C-0.458922 49.8036 -0.458922 52.7834 1.37872 54.6211C3.21662 56.459 6.19618 56.459 8.03408 54.6211L28.0004 34.6547L47.9668 54.6211C49.8044 56.459 52.7842 56.459 54.6221 54.6211C56.4601 52.7832 56.4601 49.8036 54.6221 47.9657L34.6561 27.9996Z" fill="white"/>
</svg>
