<svg height="516pt" viewBox="0 -2 516.26667 516" width="516pt" xmlns="http://www.w3.org/2000/svg"><path d="m347.734375 106.800781h-181.335937c-34.132813 0-59.730469 25.597657-59.730469 59.734375v181.332032c0 32 25.597656 57.597656 59.730469 57.597656h181.335937c32 0 59.730469-25.597656 59.730469-59.730469v-179.199219c-2.132813-34.136718-27.730469-59.734375-59.730469-59.734375zm0 0" fill="#42a5f5"/><path d="m17.066406 170.800781c-10.667968 0-17.066406-6.402343-17.066406-14.933593v-96c0-34.132813 25.601562-59.734376 59.734375-59.734376h96c8.53125 0 14.933594 6.402344 14.933594 17.066407 0 10.667969-6.402344 14.933593-14.933594 14.933593h-96c-14.933594 0-27.734375 12.800782-27.734375 27.734376v96c0 8.53125-6.398438 14.933593-14.933594 14.933593zm0 0"/><path d="m454.398438 512.132812h-96c-8.53125 0-17.066407-6.398437-17.066407-17.066406 0-10.667968 6.402344-17.066406 17.066407-17.066406h96c14.933593 0 27.734374-12.800781 27.734374-27.734375v-96c0-8.53125 6.402344-17.066406 17.066407-17.066406 10.667969 0 17.066406 6.402343 17.066406 17.066406v96c-4.265625 36.269531-29.867187 61.867187-61.867187 61.867187zm0 0"/><path d="m155.734375 512.132812h-96c-34.132813 0-59.734375-25.597656-59.734375-57.597656v-96c0-10.667968 6.398438-17.070312 17.066406-17.070312 10.667969 0 17.066406 6.402344 17.066406 17.070312v96c0 14.929688 12.800782 27.730469 27.734376 27.730469h96c8.53125 0 17.066406 6.402344 17.066406 17.066406 0 10.667969-10.667969 12.800781-19.199219 12.800781zm0 0"/><path d="m497.066406 170.800781c-8.53125 0-17.066406-6.402343-17.066406-17.066406v-93.867187c0-14.933594-12.800781-27.734376-27.734375-27.734376h-96c-8.53125 0-17.066406-6.398437-17.066406-17.066406 0-10.667968 8.535156-14.933594 19.199219-14.933594h96c32 0 57.601562 25.601563 57.601562 59.734376v96c0 8.53125-6.398438 14.933593-14.933594 14.933593zm0 0"/><path d="m369.066406 426.800781h-224c-34.132812 0-59.734375-25.601562-59.734375-57.601562v-224c0-34.132813 25.601563-59.734375 59.734375-59.734375h224c32 0 57.601563 25.601562 57.601563 59.734375v224c0 32-25.601563 57.601562-57.601563 57.601562zm-224-309.335937c-14.933594 0-27.734375 12.800781-27.734375 27.734375v224c0 14.933593 12.800781 27.734375 27.734375 27.734375h224c14.933594 0 27.734375-12.800782 27.734375-27.734375v-224c0-14.933594-12.800781-27.734375-27.734375-27.734375zm0 0"/></svg>