<?xml version="1.0" standalone="no"?>
<!DOCTYPE svg PUBLIC "-//W3C//DTD SVG 20010904//EN"
 "http://www.w3.org/TR/2001/REC-SVG-20010904/DTD/svg10.dtd">
<svg version="1.0" xmlns="http://www.w3.org/2000/svg"
 width="771.000000pt" height="779.000000pt" viewBox="0 0 771.000000 779.000000"
 preserveAspectRatio="xMidYMid meet">
<metadata>
Created by potrace 1.15, written by Peter Selinger 2001-2017
</metadata>
<g transform="translate(0.000000,779.000000) scale(0.100000,-0.100000)"
fill="#000000" stroke="none">
<path d="M4805 7650 c-14 -85 -57 -205 -115 -325 -62 -128 -192 -335 -210
-335 -6 0 -8 -4 -5 -10 3 -5 2 -10 -3 -10 -5 0 -29 -25 -52 -56 -138 -182
-400 -454 -663 -687 -32 -29 -143 -130 -247 -224 -104 -95 -190 -173 -192
-173 -9 0 -180 -156 -431 -395 -137 -129 -288 -289 -377 -398 -14 -17 -38 -44
-53 -61 -39 -43 -145 -196 -198 -286 -24 -41 -47 -77 -51 -78 -5 -2 -6 -8 -2
-13 3 -5 1 -9 -4 -9 -6 0 -24 -33 -41 -73 -75 -182 -105 -356 -89 -522 5 -49
10 -102 11 -117 1 -16 6 -28 11 -28 4 0 6 -9 3 -20 -3 -11 -1 -23 4 -26 5 -3
7 -9 4 -14 -3 -5 -1 -11 5 -15 5 -3 10 1 10 9 0 9 4 16 10 16 5 0 9 3 8 8 -1
4 3 17 10 30 7 12 11 22 8 22 -14 0 180 362 203 380 4 3 19 26 34 53 16 26 36
55 46 65 10 9 46 54 80 100 34 45 79 100 100 122 21 22 37 40 36 40 -1 0 19
22 44 48 25 26 128 134 229 240 101 106 188 192 192 192 5 0 35 26 67 58 32
32 116 109 188 172 324 288 896 855 887 883 -1 4 2 7 8 7 13 0 137 162 215
280 63 95 179 303 191 344 4 11 18 46 32 76 14 30 26 57 26 60 1 3 4 10 8 16
11 17 48 154 64 239 19 99 30 377 17 425 l-10 35 -8 -45z"/>
<path d="M4737 6579 c-40 -124 -170 -399 -188 -399 -5 0 -7 -4 -4 -10 3 -5 1
-10 -5 -10 -6 0 -8 -4 -5 -10 3 -5 2 -10 -3 -10 -5 0 -34 -37 -63 -82 -116
-176 -257 -348 -404 -491 -130 -127 -466 -440 -655 -610 -496 -446 -640 -594
-823 -848 -42 -59 -176 -297 -178 -316 0 -5 -6 -15 -14 -23 -18 -21 -61 -160
-81 -266 -18 -94 -23 -276 -12 -409 3 -44 7 -80 8 -80 1 0 3 -18 5 -40 5 -39
60 -243 69 -252 2 -2 7 33 10 79 10 117 27 231 38 245 5 6 8 17 7 25 -1 7 1
20 4 28 3 8 15 50 27 94 30 112 85 255 142 370 50 99 143 256 158 266 4 3 41
50 82 105 41 55 103 134 138 175 69 82 404 415 460 458 19 15 136 119 259 232
123 113 244 223 270 245 85 72 335 330 417 430 134 162 281 432 330 605 15 52
30 100 34 105 27 34 44 415 23 487 -7 22 -13 10 -46 -93z"/>
<path d="M4780 5813 c0 -55 -52 -220 -102 -325 -28 -60 -55 -108 -60 -108 -5
0 -6 -4 -3 -10 3 -5 2 -10 -3 -10 -5 0 -25 -26 -45 -58 -126 -204 -381 -488
-642 -713 -127 -110 -395 -357 -550 -508 -66 -64 -159 -153 -206 -199 -48 -45
-84 -82 -81 -82 4 0 -4 -7 -17 -16 -52 -37 -240 -290 -314 -424 -40 -73 -107
-234 -107 -259 0 -9 -7 -29 -15 -45 -9 -16 -15 -37 -14 -45 1 -9 -1 -23 -4
-31 -11 -29 -14 -136 -6 -220 14 -138 62 -277 144 -415 24 -41 41 -75 38 -75
-4 0 2 -7 13 -15 10 -8 15 -15 10 -15 -7 0 33 -55 75 -104 4 -5 1 13 -7 40 -8
27 -17 69 -19 94 -2 25 -9 77 -14 115 -15 100 -13 266 3 366 18 109 63 259 78
259 6 0 9 2 6 5 -10 10 101 215 172 319 77 112 150 197 315 362 105 106 434
410 559 518 54 46 409 396 402 396 -1 0 16 20 39 45 69 73 171 223 232 340 62
120 91 194 118 306 10 41 22 79 27 86 27 34 15 453 -13 453 -5 0 -9 -12 -9
-27z"/>
<path d="M5079 5136 c74 -148 96 -234 96 -386 0 -98 -4 -132 -17 -155 -9 -16
-26 -55 -37 -85 -12 -30 -37 -82 -57 -117 -39 -71 -149 -213 -164 -213 -6 0
-10 -6 -10 -13 0 -11 -139 -144 -404 -387 -96 -88 -243 -242 -312 -326 -31
-38 -60 -70 -65 -72 -5 -2 -9 -8 -9 -14 0 -9 -58 -98 -70 -108 -12 -9 -77
-134 -101 -192 -12 -32 -27 -58 -32 -58 -5 0 -7 -7 -3 -15 3 -8 2 -15 -3 -15
-12 0 -48 -151 -62 -260 -13 -108 -6 -279 16 -394 8 -42 12 -83 9 -90 -3 -8
-1 -17 5 -21 6 -3 11 2 11 13 0 10 3 22 7 25 3 4 17 48 29 99 38 149 151 355
298 543 70 90 393 432 617 654 48 48 120 124 160 170 41 46 88 98 104 116 50
52 150 205 198 301 129 257 138 516 26 735 -49 97 -165 254 -243 329 l-36 34
49 -98z"/>
<path d="M5547 4666 c13 -103 7 -399 -10 -492 -24 -135 -106 -354 -141 -376
-6 -5 -7 -8 -1 -8 6 0 5 -4 -2 -8 -6 -4 -34 -41 -60 -82 -102 -155 -284 -347
-618 -650 -199 -181 -352 -359 -459 -536 -27 -43 -56 -90 -65 -104 -10 -14
-27 -50 -40 -80 -13 -30 -30 -63 -39 -72 -8 -10 -12 -18 -7 -18 4 0 1 -10 -8
-23 -28 -43 -96 -273 -116 -397 -18 -112 -38 -330 -27 -305 2 6 14 43 26 82
52 176 232 472 358 591 19 17 33 32 31 32 -14 0 373 378 431 422 31 23 127
112 355 328 126 119 194 198 348 401 7 8 25 40 41 70 16 30 35 61 42 69 19 23
80 178 94 240 7 30 16 60 21 66 5 6 13 53 19 104 9 94 2 228 -19 338 -13 63
-82 276 -105 321 -9 17 -16 32 -16 33 2 5 -12 43 -26 73 -13 29 -14 29 -7 -19z"/>
<path d="M5850 3703 c0 -112 -51 -320 -117 -477 -44 -103 -155 -286 -174 -286
-5 0 -9 -6 -9 -14 0 -8 -4 -16 -8 -18 -4 -1 -28 -28 -53 -59 -136 -169 -380
-404 -624 -601 -44 -36 -89 -75 -99 -87 -11 -11 -24 -21 -31 -21 -16 0 -287
-277 -361 -370 -72 -89 -164 -221 -189 -270 -10 -18 -24 -40 -32 -48 -47 -47
-158 -336 -193 -500 -25 -123 -52 -311 -44 -323 3 -5 0 -9 -5 -9 -7 0 -11 -23
-10 -57 l0 -58 18 51 c10 27 27 66 37 85 10 18 19 39 20 44 1 6 35 70 74 144
147 274 269 439 490 661 148 149 280 273 280 264 0 -2 91 75 203 172 111 97
231 202 267 232 132 114 346 340 409 431 68 100 154 269 173 344 6 26 15 47
19 47 4 0 5 9 2 20 -3 11 -1 20 5 20 15 0 32 138 32 260 0 123 -12 224 -42
355 -23 102 -38 129 -38 68z"/>
<path d="M2760 1854 c-19 -2 -90 -11 -157 -20 -67 -8 -127 -13 -133 -9 -5 3
-10 1 -10 -6 0 -7 -10 -9 -26 -6 -35 6 -367 -60 -756 -152 -20 -5 -39 -6 -42
-4 -2 3 -10 1 -17 -3 -7 -4 -22 -9 -34 -10 -11 -1 -88 -18 -170 -38 -225 -53
-322 -73 -411 -86 -44 -7 -85 -15 -90 -18 -5 -4 -27 -34 -49 -67 -22 -33 -42
-62 -46 -65 -3 -3 -90 -142 -194 -310 -103 -168 -205 -327 -225 -355 -21 -27
-101 -153 -180 -280 -78 -126 -153 -246 -167 -265 -22 -32 -23 -35 -6 -41 10
-3 19 -3 21 1 2 4 11 6 20 3 22 -5 268 35 542 89 113 22 223 42 245 43 22 2
186 37 365 78 323 74 409 92 422 89 3 -1 69 12 145 29 76 16 230 46 343 65
177 30 237 35 435 40 188 5 251 3 345 -10 118 -18 262 -59 285 -82 7 -7 15
-10 19 -7 3 4 6 1 6 -6 0 -7 4 -10 9 -7 5 4 11 3 13 -1 1 -5 30 -26 63 -47 75
-49 152 -122 207 -195 23 -31 46 -60 50 -66 5 -5 6 69 2 165 -3 96 -7 300 -8
452 0 152 -4 279 -7 282 -3 3 -96 6 -207 6 l-202 1 0 157 0 157 219 -4 219 -3
4 62 c1 34 1 63 -1 66 -2 2 -5 19 -7 39 -7 82 -73 176 -162 234 -26 17 -97 47
-157 67 -108 36 -113 36 -295 39 -102 2 -201 1 -220 -1z"/>
<path d="M5325 1850 c-49 -4 -130 -17 -178 -29 -49 -12 -96 -21 -105 -21 -17
0 -152 -124 -152 -139 0 -4 -51 -54 -112 -112 -62 -57 -115 -109 -118 -114 -3
-5 -22 -25 -44 -45 -53 -48 -229 -249 -302 -345 -60 -79 -164 -232 -164 -241
0 -3 -21 -42 -47 -87 -27 -45 -48 -84 -49 -87 0 -3 -12 -32 -27 -64 -45 -98
-82 -224 -107 -365 -18 -102 11 -106 48 -7 48 125 153 239 277 297 116 55 203
71 398 75 113 3 177 0 177 -6 0 -6 21 -10 48 -10 88 0 669 -93 682 -109 3 -3
14 -6 25 -6 11 1 22 -2 25 -6 5 -6 426 -90 633 -126 53 -9 97 -20 97 -24 0 -5
7 -6 16 -2 8 3 25 1 37 -5 12 -6 191 -38 397 -72 206 -33 384 -64 395 -69 16
-7 265 -59 377 -78 19 -4 29 0 37 15 9 17 -3 42 -74 164 -47 78 -97 168 -113
198 -15 30 -30 57 -33 60 -3 3 -12 19 -21 35 -8 17 -71 140 -140 275 -68 135
-169 328 -223 430 -54 102 -98 191 -98 197 0 7 -4 13 -9 13 -5 0 -6 5 -3 10 3
6 1 10 -6 10 -7 0 -10 3 -6 6 3 4 0 18 -7 33 -12 23 -42 36 -243 101 -125 41
-230 78 -231 82 -2 5 -8 5 -14 2 -6 -4 -13 -2 -17 3 -17 27 -452 121 -686 148
-192 23 -236 25 -340 15z"/>
</g>
</svg>
