<svg id="Layer_1" data-name="Layer 1" xmlns="http://www.w3.org/2000/svg" viewBox="0 0 755.63 764.35"><defs><style>.cls-1{fill:#fff;}</style></defs><title>mainSVGwhite</title><path class="cls-1" d="M480.5,14c-1.4,8.5-5.7,20.5-11.5,32.5C462.8,59.3,449.8,80,448,80c-.6,0-.8.4-.5,1s.2,1-.3,1-2.9,2.5-5.2,5.6c-13.8,18.2-40,45.4-66.3,68.7-3.2,2.9-14.3,13-24.7,22.4S332,196,331.8,196c-.9,0-18,15.6-43.1,39.5-13.7,12.9-28.8,28.9-37.7,39.8-1.4,1.7-3.8,4.4-5.3,6.1-3.9,4.3-14.5,19.6-19.8,28.6-2.4,4.1-4.7,7.7-5.1,7.8a.79.79,0,0,0-.2,1.3c.3.5.1.9-.4.9s-2.4,3.3-4.1,7.3q-11.25,27.3-8.9,52.2c.5,4.9,1,10.2,1.1,11.7s.6,2.8,1.1,2.8.6.9.3,2-.1,2.3.4,2.6a1,1,0,0,1,.4,1.4,1.1,1.1,0,0,0,.5,1.5c.5.3,1-.1,1-.9s.4-1.6,1-1.6.9-.3.8-.8a6.64,6.64,0,0,1,1-3c.7-1.2,1.1-2.2.8-2.2-1.4,0,18-36.2,20.3-38a32.34,32.34,0,0,0,3.4-5.3,47.55,47.55,0,0,1,4.6-6.5,116.85,116.85,0,0,0,8-10c3.4-4.5,7.9-10,10-12.2a48,48,0,0,0,3.6-4c-.1,0,1.9-2.2,4.4-4.8s12.8-13.4,22.9-24S311.6,269,312,269s3.5-2.6,6.7-5.8,11.6-10.9,18.8-17.2c32.4-28.8,89.6-85.5,88.7-88.3-.1-.4.2-.7.8-.7,1.3,0,13.7-16.2,21.5-28,6.3-9.5,17.9-30.3,19.1-34.4.4-1.1,1.8-4.6,3.2-7.6a59.41,59.41,0,0,0,2.6-6,7.75,7.75,0,0,1,.8-1.6c1.1-1.7,4.8-15.4,6.4-23.9,1.9-9.9,3-37.7,1.7-42.5l-1-3.5Z" transform="translate(-3.53 -9.5)"/><path class="cls-1" d="M473.7,121.1c-4,12.4-17,39.9-18.8,39.9-.5,0-.7.4-.4,1s.1,1-.5,1-.8.4-.5,1,.2,1-.3,1-3.4,3.7-6.3,8.2a300.94,300.94,0,0,1-40.4,49.1c-13,12.7-46.6,44-65.5,61-49.6,44.6-64,59.4-82.3,84.8-4.2,5.9-17.6,29.7-17.8,31.6a4.53,4.53,0,0,1-1.4,2.3c-1.8,2.1-6.1,16-8.1,26.6-1.8,9.4-2.3,27.6-1.2,40.9a75.1,75.1,0,0,0,.8,8,26,26,0,0,1,.5,4c.5,3.9,6,24.3,6.9,25.2.2.2.7-3.3,1-7.9,1-11.7,2.7-23.1,3.8-24.5a3.67,3.67,0,0,0,.7-2.5,7,7,0,0,1,.4-2.8c.3-.8,1.5-5,2.7-9.4a217.28,217.28,0,0,1,14.2-37c5-9.9,14.3-25.6,15.8-26.6.4-.3,4.1-5,8.2-10.5S295.5,372.1,299,368c6.9-8.2,40.4-41.5,46-45.8,1.9-1.5,13.6-11.9,25.9-23.2s24.4-22.3,27-24.5c8.5-7.2,33.5-33,41.7-43,13.4-16.2,28.1-43.2,33-60.5,1.5-5.2,3-10,3.4-10.5,2.7-3.4,4.4-41.5,2.3-48.7C477.6,109.6,477,110.8,473.7,121.1Z" transform="translate(-3.53 -9.5)"/><path class="cls-1" d="M478,197.7c0,5.5-5.2,22-10.2,32.5-2.8,6-5.5,10.8-6,10.8s-.6.4-.3,1,.2,1-.3,1-2.5,2.6-4.5,5.8c-12.6,20.4-38.1,48.8-64.2,71.3-12.7,11-39.5,35.7-55,50.8-6.6,6.4-15.9,15.3-20.6,19.9s-8.4,8.2-8.1,8.2-.4.7-1.7,1.6c-5.2,3.7-24,29-31.4,42.4-4,7.3-10.7,23.4-10.7,25.9a13.76,13.76,0,0,1-1.5,4.5,10.17,10.17,0,0,0-1.4,4.5,8,8,0,0,1-.4,3.1c-1.1,2.9-1.4,13.6-.6,22,1.4,13.8,6.2,27.7,14.4,41.5,2.4,4.1,4.1,7.5,3.8,7.5s.2.7,1.3,1.5,1.5,1.5,1,1.5c-.7,0,3.3,5.5,7.5,10.4.4.5.1-1.3-.7-4a56,56,0,0,1-1.9-9.4c-.2-2.5-.9-7.7-1.4-11.5-1.5-10-1.3-26.6.3-36.6,1.8-10.9,6.3-25.9,7.8-25.9.6,0,.9-.2.6-.5-1-1,10.1-21.5,17.2-31.9,7.7-11.2,15-19.7,31.5-36.2,10.5-10.6,43.4-41,55.9-51.8,5.4-4.6,40.9-39.6,40.2-39.6a54.35,54.35,0,0,1,3.9-4.5c6.9-7.3,17.1-22.3,23.2-34,6.2-12,9.1-19.4,11.8-30.6,1-4.1,2.2-7.9,2.7-8.6,2.7-3.4,1.5-45.3-1.3-45.3C478.4,195,478,196.2,478,197.7Z" transform="translate(-3.53 -9.5)"/><path class="cls-1" d="M507.9,265.4c7.4,14.8,9.6,23.4,9.6,38.6,0,9.8-.4,13.2-1.7,15.5a75.46,75.46,0,0,0-3.7,8.5,112.73,112.73,0,0,1-5.7,11.7c-3.9,7.1-14.9,21.3-16.4,21.3-.6,0-1,.6-1,1.3,0,1.1-13.9,14.4-40.4,38.7a405.24,405.24,0,0,0-31.2,32.6c-3.1,3.8-6,7-6.5,7.2a1.57,1.57,0,0,0-.9,1.4c0,.9-5.8,9.8-7,10.8s-7.7,13.4-10.1,19.2c-1.2,3.2-2.7,5.8-3.2,5.8s-.7.7-.3,1.5.2,1.5-.3,1.5c-1.2,0-4.8,15.1-6.2,26s-.6,27.9,1.6,39.4c.8,4.2,1.2,8.3.9,9a1.78,1.78,0,0,0,.5,2.1c.6.3,1.1-.2,1.1-1.3a3.92,3.92,0,0,1,.7-2.5,68.34,68.34,0,0,0,2.9-9.9c3.8-14.9,15.1-35.5,29.8-54.3,7-9,39.3-43.2,61.7-65.4,4.8-4.8,12-12.4,16-17s8.8-9.8,10.4-11.6c5-5.2,15-20.5,19.8-30.1,12.9-25.7,13.8-51.6,2.6-73.5-4.9-9.7-16.5-25.4-24.3-32.9l-3.6-3.4Z" transform="translate(-3.53 -9.5)"/><path class="cls-1" d="M554.7,312.4c1.3,10.3.7,39.9-1,49.2-2.4,13.5-10.6,35.4-14.1,37.6-.6.5-.7.8-.1.8s.5.4-.2.8-3.4,4.1-6,8.2c-10.2,15.5-28.4,34.7-61.8,65-19.9,18.1-35.2,35.9-45.9,53.6-2.7,4.3-5.6,9-6.5,10.4a58.69,58.69,0,0,0-4,8c-1.3,3-3,6.3-3.9,7.2s-1.2,1.8-.7,1.8.1,1-.8,2.3c-2.8,4.3-9.6,27.3-11.6,39.7-1.8,11.2-3.8,33-2.7,30.5.2-.6,1.4-4.3,2.6-8.2,5.2-17.6,23.2-47.2,35.8-59.1,1.9-1.7,3.3-3.2,3.1-3.2-1.4,0,37.3-37.8,43.1-42.2,3.1-2.3,12.7-11.2,35.5-32.8,12.6-11.9,19.4-19.8,34.8-40.1a62.4,62.4,0,0,0,4.1-7,55.31,55.31,0,0,1,4.2-6.9c1.9-2.3,8-17.8,9.4-24,.7-3,1.6-6,2.1-6.6s1.3-5.3,1.9-10.4a131.83,131.83,0,0,0-1.9-33.8c-1.3-6.3-8.2-27.6-10.5-32.1a34.5,34.5,0,0,1-1.6-3.3c.2-.5-1.2-4.3-2.6-7.3S554,307.6,554.7,312.4Z" transform="translate(-3.53 -9.5)"/><path class="cls-1" d="M585,408.7c0,11.2-5.1,32-11.7,47.7-4.4,10.3-15.5,28.6-17.4,28.6-.5,0-.9.6-.9,1.4a2.2,2.2,0,0,1-.8,1.8c-.4.1-2.8,2.8-5.3,5.9-13.6,16.9-38,40.4-62.4,60.1a123.94,123.94,0,0,0-9.9,8.7c-1.1,1.1-2.4,2.1-3.1,2.1-1.6,0-28.7,27.7-36.1,37-7.2,8.9-16.4,22.1-18.9,27a28.22,28.22,0,0,1-3.2,4.8c-4.7,4.7-15.8,33.6-19.3,50-2.5,12.3-5.2,31.1-4.4,32.3a.55.55,0,0,1-.5.9c-.7,0-1.1,2.3-1,5.7v5.8l1.8-5.1a89.46,89.46,0,0,1,3.7-8.5,26.12,26.12,0,0,0,2-4.4c.1-.6,3.5-7,7.4-14.4,14.7-27.4,26.9-43.9,49-66.1,14.8-14.9,28-27.3,28-26.4,0,.2,9.1-7.5,20.3-17.2s23.1-20.2,26.7-23.2c13.2-11.4,34.6-34,40.9-43.1,6.8-10,15.4-26.9,17.3-34.4.6-2.6,1.5-4.7,1.9-4.7s.5-.9.2-2-.1-2,.5-2c1.5,0,3.2-13.8,3.2-26a148.09,148.09,0,0,0-4.2-35.5C586.5,405.3,585,402.6,585,408.7Z" transform="translate(-3.53 -9.5)"/><path class="cls-1" d="M276,593.6c-1.9.2-9,1.1-15.7,2s-12.7,1.3-13.3.9-1-.1-1,.6-1,.9-2.6.6c-3.5-.6-36.7,6-75.6,15.2a10.12,10.12,0,0,1-4.2.4c-.2-.3-1-.1-1.7.3a9.77,9.77,0,0,1-3.4,1c-1.1.1-8.8,1.8-17,3.8-22.5,5.3-32.2,7.3-41.1,8.6a67.78,67.78,0,0,0-9,1.8,61.51,61.51,0,0,0-4.9,6.7,71.56,71.56,0,0,1-4.6,6.5c-.3.3-9,14.2-19.4,31S42,705.7,40,708.5s-10.1,15.3-18,28S6.7,761.1,5.3,763c-2.2,3.2-2.3,3.5-.6,4.1,1,.3,1.9.3,2.1-.1s1.1-.6,2-.3c2.2.5,26.8-3.5,54.2-8.9,11.3-2.2,22.3-4.2,24.5-4.3s18.6-3.7,36.5-7.8c32.3-7.4,40.9-9.2,42.2-8.9.3.1,6.9-1.2,14.5-2.9s23-4.6,34.3-6.5c17.7-3,23.7-3.5,43.5-4,18.8-.5,25.1-.3,34.5,1,11.8,1.8,26.2,5.9,28.5,8.2.7.7,1.5,1,1.9.7s.6-.1.6.6.4,1,.9.7a.84.84,0,0,1,1.3.1c.1.5,3,2.6,6.3,4.7a87,87,0,0,1,20.7,19.5c2.3,3.1,4.6,6,5,6.6s.6-6.9.2-16.5-.7-30-.8-45.2-.4-27.9-.7-28.2-9.6-.6-20.7-.6l-20.2-.1V643.5l21.9.4,21.9.3.4-6.2a36.77,36.77,0,0,0-.1-6.6,14.68,14.68,0,0,1-.7-3.9c-.7-8.2-7.3-17.6-16.2-23.4-2.6-1.7-9.7-4.7-15.7-6.7-10.8-3.6-11.3-3.6-29.5-3.9C287.8,593.3,277.9,593.4,276,593.6Z" transform="translate(-3.53 -9.5)"/><path class="cls-1" d="M532.5,594a134.72,134.72,0,0,0-17.8,2.9,89.27,89.27,0,0,1-10.5,2.1c-1.7,0-15.2,12.4-15.2,13.9,0,.4-5.1,5.4-11.2,11.2S466.3,635,466,635.5a39.19,39.19,0,0,1-4.4,4.5c-5.3,4.8-22.9,24.9-30.2,34.5-6,7.9-16.4,23.2-16.4,24.1a96.33,96.33,0,0,1-4.7,8.7c-2.7,4.5-4.8,8.4-4.9,8.7a55.38,55.38,0,0,1-2.7,6.4c-4.5,9.8-8.2,22.4-10.7,36.5-1.8,10.2,1.1,10.6,4.8.7a56.18,56.18,0,0,1,27.7-29.7c11.6-5.5,20.3-7.1,39.8-7.5,11.3-.3,17.7,0,17.7.6s2.1,1,4.8,1c8.8,0,66.9,9.3,68.2,10.9a4.51,4.51,0,0,0,2.5.6,3.29,3.29,0,0,1,2.5.6c.5.6,42.6,9,63.3,12.6,5.3.9,9.7,2,9.7,2.4s.7.6,1.6.2a5.64,5.64,0,0,1,3.7.5c1.2.6,19.1,3.8,39.7,7.2s38.4,6.4,39.5,6.9c1.6.7,26.5,5.9,37.7,7.8,1.9.4,2.9,0,3.7-1.5.9-1.7-.3-4.2-7.4-16.4-4.7-7.8-9.7-16.8-11.3-19.8a56.14,56.14,0,0,0-3.3-6,33.55,33.55,0,0,1-2.1-3.5c-.8-1.7-7.1-14-14-27.5s-16.9-32.8-22.3-43-9.8-19.1-9.8-19.7-.4-1.3-.9-1.3-.6-.5-.3-1,.1-1-.6-1-1-.3-.6-.6,0-1.8-.7-3.3c-1.2-2.3-4.2-3.6-24.3-10.1-12.5-4.1-23-7.8-23.1-8.2s-.8-.5-1.4-.2a1.25,1.25,0,0,1-1.7-.3c-1.7-2.7-45.2-12.1-68.6-14.8C547.3,593.2,542.9,593,532.5,594Z" transform="translate(-3.53 -9.5)"/></svg>