<?xml version="1.0"?>
<svg xmlns="http://www.w3.org/2000/svg" xmlns:xlink="http://www.w3.org/1999/xlink" version="1.1" id="Capa_1" x="0px" y="0px" viewBox="0 0 52.966 52.966" style="enable-background:new 0 0 52.966 52.966;" xml:space="preserve" width="512px" height="512px" class=""><g><circle style="fill:#FFC900" cx="21.983" cy="21" r="20" data-original="#57ABC1" class="" data-old_color="#FF3F00"/><line style="fill:none;stroke:#556080;stroke-width:2;stroke-linecap:round;stroke-miterlimit:10;" x1="35.437" y1="35.798" x2="50.983" y2="51.966"/><path style="fill:#7CCBD8;" d="M3.002,27.253c0.848,2.582,2.24,5.018,4.167,7.146L35.382,6.186  c-2.129-1.928-4.564-3.319-7.146-4.167L3.002,27.253z" data-original="#7CCBD8" class=""/><path style="fill:#FF6D00" d="M21.983,42c-11.58,0-21-9.42-21-21s9.42-21,21-21s21,9.42,21,21S33.562,42,21.983,42z M21.983,2  c-10.477,0-19,8.523-19,19s8.523,19,19,19s19-8.523,19-19S32.459,2,21.983,2z" data-original="#556080" class="active-path" data-old_color="#FF9B00"/></g> </svg>
